<?xml version="1.0" encoding="UTF-8" standalone="no"?>
<!DOCTYPE svg PUBLIC "-//W3C//DTD SVG 1.1//EN" "http://www.w3.org/Graphics/SVG/1.1/DTD/svg11.dtd">
<!-- Created with Vectornator (http://vectornator.io/) -->
<svg height="100%" stroke-miterlimit="10" style="fill-rule:nonzero;clip-rule:evenodd;stroke-linecap:round;stroke-linejoin:round;" version="1.1" viewBox="0 0 490.963 229.04" width="100%" xml:space="preserve" xmlns="http://www.w3.org/2000/svg" xmlns:vectornator="http://vectornator.io" xmlns:xlink="http://www.w3.org/1999/xlink">
<defs/>
<g id="Layer-1" vectornator:layerName="Layer 1">
<path d="M13.8178 11.0414L146.984 11.0414L146.984 182.545L13.8178 182.545L13.8178 11.0414Z" fill="none" opacity="1" stroke="#000000" stroke-linecap="butt" stroke-linejoin="round" stroke-width="2" vectornator:layerName="Rectangle 1"/>
<path d="M32.8889 29.9796L127.912 29.9796" fill="none" opacity="1" stroke="#000000" stroke-linecap="butt" stroke-linejoin="round" stroke-width="2" vectornator:layerName="Line 1"/>
<path d="M32.8889 38.8881L127.912 38.8881" fill="none" opacity="1" stroke="#000000" stroke-linecap="butt" stroke-linejoin="round" stroke-width="2" vectornator:layerName="Line 2"/>
<path d="M32.8889 47.7966L127.912 47.7966" fill="none" opacity="1" stroke="#000000" stroke-linecap="butt" stroke-linejoin="round" stroke-width="2" vectornator:layerName="Line 3"/>
<path d="M32.8889 56.7051L127.912 56.7051" fill="none" opacity="1" stroke="#000000" stroke-linecap="butt" stroke-linejoin="round" stroke-width="2" vectornator:layerName="Line 4"/>
<path d="M32.8889 65.6136L127.912 65.6136" fill="none" opacity="1" stroke="#000000" stroke-linecap="butt" stroke-linejoin="round" stroke-width="2" vectornator:layerName="Line 5"/>
<path d="M32.8889 74.522L127.912 74.522" fill="none" opacity="1" stroke="#000000" stroke-linecap="butt" stroke-linejoin="round" stroke-width="2" vectornator:layerName="Line 6"/>
<path d="M32.8889 83.4305L127.912 83.4305" fill="none" opacity="1" stroke="#000000" stroke-linecap="butt" stroke-linejoin="round" stroke-width="2" vectornator:layerName="Line 7"/>
<path d="M32.8889 92.339L127.912 92.339" fill="none" opacity="1" stroke="#000000" stroke-linecap="butt" stroke-linejoin="round" stroke-width="2" vectornator:layerName="Line 8"/>
<path d="M32.8889 101.247L127.912 101.247" fill="none" opacity="1" stroke="#000000" stroke-linecap="butt" stroke-linejoin="round" stroke-width="2" vectornator:layerName="Line 9"/>
<path d="M32.8889 110.156L127.912 110.156" fill="none" opacity="1" stroke="#000000" stroke-linecap="butt" stroke-linejoin="round" stroke-width="2" vectornator:layerName="Line 10"/>
<path d="M32.8889 119.064L127.912 119.064" fill="none" opacity="1" stroke="#000000" stroke-linecap="butt" stroke-linejoin="round" stroke-width="2" vectornator:layerName="Line 11"/>
<path d="M32.8889 127.973L127.912 127.973" fill="none" opacity="1" stroke="#000000" stroke-linecap="butt" stroke-linejoin="round" stroke-width="2" vectornator:layerName="Line 12"/>
<path d="M32.8889 136.881L127.912 136.881" fill="none" opacity="1" stroke="#000000" stroke-linecap="butt" stroke-linejoin="round" stroke-width="2" vectornator:layerName="Line 13"/>
<path d="M32.8889 145.79L127.912 145.79" fill="none" opacity="1" stroke="#000000" stroke-linecap="butt" stroke-linejoin="round" stroke-width="2" vectornator:layerName="Line 14"/>
<path d="M32.8889 154.698L127.912 154.698" fill="none" opacity="1" stroke="#000000" stroke-linecap="butt" stroke-linejoin="round" stroke-width="2" vectornator:layerName="Line 15"/>
<path d="M32.8889 163.607L127.912 163.607" fill="none" opacity="1" stroke="#000000" stroke-linecap="butt" stroke-linejoin="round" stroke-width="2" vectornator:layerName="Line 16"/>
<path d="M250.366 11.0414L472.763 11.0414L472.763 182.545L250.366 182.545L250.366 11.0414Z" fill="none" opacity="1" stroke="#000000" stroke-linecap="butt" stroke-linejoin="round" stroke-width="2" vectornator:layerName="Rectangle 2"/>
<path d="M314.053 29.9796L409.076 29.9796" fill="none" opacity="1" stroke="#000000" stroke-linecap="butt" stroke-linejoin="round" stroke-width="2" vectornator:layerName="Line 17"/>
<path d="M314.053 38.8881L409.076 38.8881" fill="none" opacity="1" stroke="#000000" stroke-linecap="butt" stroke-linejoin="round" stroke-width="2" vectornator:layerName="Line 18"/>
<path d="M314.053 47.7966L409.076 47.7966" fill="none" opacity="1" stroke="#000000" stroke-linecap="butt" stroke-linejoin="round" stroke-width="2" vectornator:layerName="Line 19"/>
<path d="M314.053 56.7051L409.076 56.7051" fill="none" opacity="1" stroke="#000000" stroke-linecap="butt" stroke-linejoin="round" stroke-width="2" vectornator:layerName="Line 20"/>
<path d="M314.053 65.6136L409.076 65.6136" fill="none" opacity="1" stroke="#000000" stroke-linecap="butt" stroke-linejoin="round" stroke-width="2" vectornator:layerName="Line 21"/>
<path d="M314.053 74.522L409.076 74.522" fill="none" opacity="1" stroke="#000000" stroke-linecap="butt" stroke-linejoin="round" stroke-width="2" vectornator:layerName="Line 22"/>
<path d="M314.053 83.4305L409.076 83.4305" fill="none" opacity="1" stroke="#000000" stroke-linecap="butt" stroke-linejoin="round" stroke-width="2" vectornator:layerName="Line 23"/>
<path d="M314.053 92.339L409.076 92.339" fill="none" opacity="1" stroke="#000000" stroke-linecap="butt" stroke-linejoin="round" stroke-width="2" vectornator:layerName="Line 24"/>
<path d="M314.053 101.247L409.076 101.247" fill="none" opacity="1" stroke="#000000" stroke-linecap="butt" stroke-linejoin="round" stroke-width="2" vectornator:layerName="Line 25"/>
<path d="M314.053 110.156L409.076 110.156" fill="none" opacity="1" stroke="#000000" stroke-linecap="butt" stroke-linejoin="round" stroke-width="2" vectornator:layerName="Line 26"/>
<path d="M314.053 119.064L409.076 119.064" fill="none" opacity="1" stroke="#000000" stroke-linecap="butt" stroke-linejoin="round" stroke-width="2" vectornator:layerName="Line 27"/>
<path d="M314.053 127.973L409.076 127.973" fill="none" opacity="1" stroke="#000000" stroke-linecap="butt" stroke-linejoin="round" stroke-width="2" vectornator:layerName="Line 28"/>
<path d="M314.053 136.881L409.076 136.881" fill="none" opacity="1" stroke="#000000" stroke-linecap="butt" stroke-linejoin="round" stroke-width="2" vectornator:layerName="Line 29"/>
<path d="M314.053 145.79L409.076 145.79" fill="none" opacity="1" stroke="#000000" stroke-linecap="butt" stroke-linejoin="round" stroke-width="2" vectornator:layerName="Line 30"/>
<path d="M314.053 154.698L409.076 154.698" fill="none" opacity="1" stroke="#000000" stroke-linecap="butt" stroke-linejoin="round" stroke-width="2" vectornator:layerName="Line 31"/>
<path d="M314.053 163.607L409.076 163.607" fill="none" opacity="1" stroke="#000000" stroke-linecap="butt" stroke-linejoin="round" stroke-width="2" vectornator:layerName="Line 32"/>
<g fill="#000120" opacity="1" stroke="none" vectornator:layerName="Text 1">
<path d="M47.7581 197.502L49.8089 197.502L49.8089 203.748C50.2698 203.146 50.8206 202.687 51.4612 202.371C52.1018 202.055 52.7972 201.896 53.5472 201.896C55.1097 201.896 56.3772 202.434 57.3499 203.508C58.3225 204.582 58.8089 206.166 58.8089 208.26C58.8089 210.244 58.3284 211.892 57.3675 213.205C56.4065 214.517 55.0745 215.174 53.3714 215.174C52.4183 215.174 51.6136 214.943 50.9573 214.482C50.5667 214.209 50.1487 213.771 49.7034 213.17L49.7034 214.775L47.7581 214.775L47.7581 197.502ZM53.2425 213.31C54.3831 213.31 55.2366 212.857 55.803 211.951C56.3694 211.045 56.6526 209.85 56.6526 208.365C56.6526 207.045 56.3694 205.951 55.803 205.084C55.2366 204.217 54.4026 203.783 53.3011 203.783C52.3401 203.783 51.4983 204.139 50.7757 204.85C50.053 205.56 49.6917 206.732 49.6917 208.365C49.6917 209.545 49.8401 210.502 50.137 211.236C50.6917 212.619 51.7268 213.31 53.2425 213.31Z"/>
<path d="M66.4964 201.943C67.387 201.943 68.2503 202.152 69.0862 202.57C69.9222 202.988 70.5589 203.529 70.9964 204.193C71.4183 204.826 71.6995 205.564 71.8401 206.408C71.9651 206.986 72.0276 207.908 72.0276 209.174L62.8284 209.174C62.8675 210.447 63.1683 211.469 63.7308 212.238C64.2933 213.008 65.1643 213.392 66.344 213.392C67.4456 213.392 68.3245 213.029 68.9808 212.303C69.3558 211.881 69.6214 211.392 69.7776 210.838L71.8518 210.838C71.7972 211.299 71.6155 211.812 71.3069 212.379C70.9983 212.945 70.6526 213.408 70.2698 213.767C69.6292 214.392 68.8362 214.814 67.8909 215.033C67.3831 215.158 66.8089 215.221 66.1683 215.221C64.6058 215.221 63.2815 214.652 62.1956 213.516C61.1097 212.379 60.5667 210.787 60.5667 208.74C60.5667 206.725 61.1136 205.088 62.2073 203.83C63.3011 202.572 64.7308 201.943 66.4964 201.943ZM69.8597 207.498C69.7737 206.584 69.5745 205.853 69.262 205.307C68.6839 204.291 67.719 203.783 66.3675 203.783C65.3987 203.783 64.5862 204.133 63.93 204.832C63.2737 205.531 62.9261 206.42 62.887 207.498L69.8597 207.498Z"/>
<path d="M75.1448 200.314C75.1761 199.439 75.3284 198.799 75.6018 198.392C76.094 197.674 77.0433 197.314 78.4495 197.314C78.5823 197.314 78.719 197.318 78.8597 197.326C79.0003 197.334 79.1604 197.346 79.3401 197.361L79.3401 199.283C79.1214 199.267 78.9632 199.258 78.8655 199.254C78.7679 199.25 78.6761 199.248 78.5901 199.248C77.9495 199.248 77.5667 199.414 77.4417 199.746C77.3167 200.078 77.2542 200.924 77.2542 202.283L79.3401 202.283L79.3401 203.947L77.2308 203.947L77.2308 214.775L75.1448 214.775L75.1448 203.947L73.3987 203.947L73.3987 202.283L75.1448 202.283L75.1448 200.314Z"/>
<path d="M86.2659 213.416C87.6643 213.416 88.6233 212.887 89.1429 211.828C89.6624 210.769 89.9222 209.592 89.9222 208.295C89.9222 207.123 89.7347 206.17 89.3597 205.435C88.7659 204.279 87.7425 203.701 86.2893 203.701C85.0003 203.701 84.0628 204.193 83.4768 205.178C82.8909 206.162 82.5979 207.35 82.5979 208.74C82.5979 210.076 82.8909 211.189 83.4768 212.08C84.0628 212.971 84.9925 213.416 86.2659 213.416ZM86.3479 201.861C87.9651 201.861 89.3323 202.4 90.4495 203.478C91.5667 204.557 92.1253 206.142 92.1253 208.236C92.1253 210.26 91.6331 211.932 90.6487 213.252C89.6643 214.572 88.137 215.232 86.0667 215.232C84.3401 215.232 82.969 214.648 81.9534 213.48C80.9378 212.312 80.43 210.744 80.43 208.775C80.43 206.666 80.9651 204.986 82.0354 203.736C83.1058 202.486 84.5433 201.861 86.3479 201.861Z"/>
<path d="M94.6917 202.225L96.6956 202.225L96.6956 204.392C96.8597 203.971 97.262 203.457 97.9026 202.851C98.5433 202.246 99.2815 201.943 100.117 201.943C100.157 201.943 100.223 201.947 100.317 201.955C100.41 201.963 100.571 201.978 100.797 202.002L100.797 204.228C100.672 204.205 100.557 204.189 100.451 204.182C100.346 204.174 100.231 204.17 100.106 204.17C99.0433 204.17 98.2268 204.512 97.6565 205.195C97.0862 205.879 96.8011 206.666 96.8011 207.557L96.8011 214.775L94.6917 214.775L94.6917 202.225Z"/>
<path d="M107.852 201.943C108.742 201.943 109.606 202.152 110.442 202.57C111.278 202.988 111.914 203.529 112.352 204.193C112.774 204.826 113.055 205.564 113.196 206.408C113.321 206.986 113.383 207.908 113.383 209.174L104.184 209.174C104.223 210.447 104.524 211.469 105.086 212.238C105.649 213.008 106.52 213.392 107.7 213.392C108.801 213.392 109.68 213.029 110.336 212.303C110.711 211.881 110.977 211.392 111.133 210.838L113.207 210.838C113.153 211.299 112.971 211.812 112.662 212.379C112.354 212.945 112.008 213.408 111.625 213.767C110.985 214.392 110.192 214.814 109.246 215.033C108.739 215.158 108.164 215.221 107.524 215.221C105.961 215.221 104.637 214.652 103.551 213.516C102.465 212.379 101.922 210.787 101.922 208.74C101.922 206.725 102.469 205.088 103.563 203.83C104.657 202.572 106.086 201.943 107.852 201.943ZM111.215 207.498C111.129 206.584 110.93 205.853 110.617 205.307C110.039 204.291 109.075 203.783 107.723 203.783C106.754 203.783 105.942 204.133 105.285 204.832C104.629 205.531 104.282 206.42 104.242 207.498L111.215 207.498Z"/>
</g>
<g fill="#000120" opacity="1" stroke="none" vectornator:layerName="Text 2">
<path d="M340.717 211.435C340.717 212.045 340.939 212.525 341.385 212.877C341.83 213.228 342.357 213.404 342.967 213.404C343.709 213.404 344.428 213.232 345.123 212.889C346.295 212.318 346.881 211.385 346.881 210.088L346.881 208.389C346.623 208.553 346.291 208.689 345.885 208.799C345.479 208.908 345.08 208.986 344.689 209.033L343.412 209.197C342.647 209.299 342.072 209.459 341.689 209.678C341.041 210.045 340.717 210.631 340.717 211.435ZM345.826 207.17C346.311 207.107 346.635 206.904 346.799 206.56C346.893 206.373 346.939 206.103 346.939 205.752C346.939 205.033 346.684 204.512 346.172 204.187C345.66 203.863 344.928 203.701 343.975 203.701C342.873 203.701 342.092 203.998 341.631 204.592C341.373 204.92 341.205 205.408 341.127 206.057L339.158 206.057C339.197 204.51 339.699 203.434 340.664 202.828C341.629 202.223 342.748 201.92 344.022 201.92C345.498 201.92 346.697 202.201 347.619 202.764C348.533 203.326 348.99 204.201 348.99 205.389L348.99 212.619C348.99 212.838 349.035 213.014 349.125 213.146C349.215 213.279 349.404 213.346 349.693 213.346C349.787 213.346 349.893 213.34 350.01 213.328C350.127 213.316 350.252 213.299 350.385 213.275L350.385 214.834C350.057 214.928 349.807 214.986 349.635 215.01C349.463 215.033 349.229 215.045 348.932 215.045C348.205 215.045 347.678 214.787 347.35 214.271C347.178 213.998 347.057 213.611 346.986 213.111C346.557 213.674 345.939 214.162 345.135 214.576C344.33 214.99 343.443 215.197 342.475 215.197C341.311 215.197 340.359 214.844 339.621 214.137C338.883 213.43 338.514 212.545 338.514 211.482C338.514 210.318 338.877 209.416 339.604 208.775C340.33 208.135 341.283 207.74 342.463 207.592L345.826 207.17Z"/>
<path d="M352.975 200.314C353.006 199.439 353.158 198.799 353.432 198.392C353.924 197.674 354.873 197.314 356.279 197.314C356.412 197.314 356.549 197.318 356.689 197.326C356.83 197.334 356.99 197.346 357.17 197.361L357.17 199.283C356.951 199.267 356.793 199.258 356.695 199.254C356.598 199.25 356.506 199.248 356.42 199.248C355.779 199.248 355.397 199.414 355.272 199.746C355.147 200.078 355.084 200.924 355.084 202.283L357.17 202.283L357.17 203.947L355.061 203.947L355.061 214.775L352.975 214.775L352.975 203.947L351.229 203.947L351.229 202.283L352.975 202.283L352.975 200.314Z"/>
<path d="M359.537 198.721L361.67 198.721L361.67 202.225L363.674 202.225L363.674 203.947L361.67 203.947L361.67 212.139C361.67 212.576 361.818 212.869 362.115 213.017C362.279 213.103 362.553 213.146 362.936 213.146C363.037 213.146 363.147 213.144 363.264 213.141C363.381 213.137 363.518 213.127 363.674 213.111L363.674 214.775C363.432 214.846 363.18 214.896 362.918 214.928C362.656 214.959 362.373 214.975 362.068 214.975C361.084 214.975 360.416 214.723 360.064 214.219C359.713 213.715 359.537 213.06 359.537 212.256L359.537 203.947L357.838 203.947L357.838 202.225L359.537 202.225L359.537 198.721Z"/>
<path d="M371.01 201.943C371.9 201.943 372.764 202.152 373.6 202.57C374.436 202.988 375.072 203.529 375.51 204.193C375.932 204.826 376.213 205.564 376.354 206.408C376.479 206.986 376.541 207.908 376.541 209.174L367.342 209.174C367.381 210.447 367.682 211.469 368.244 212.238C368.807 213.008 369.678 213.392 370.857 213.392C371.959 213.392 372.838 213.029 373.494 212.303C373.869 211.881 374.135 211.392 374.291 210.838L376.365 210.838C376.311 211.299 376.129 211.812 375.82 212.379C375.512 212.945 375.166 213.408 374.783 213.767C374.143 214.392 373.35 214.814 372.404 215.033C371.897 215.158 371.322 215.221 370.682 215.221C369.119 215.221 367.795 214.652 366.709 213.516C365.623 212.379 365.08 210.787 365.08 208.74C365.08 206.725 365.627 205.088 366.721 203.83C367.814 202.572 369.244 201.943 371.01 201.943ZM374.373 207.498C374.287 206.584 374.088 205.853 373.775 205.307C373.197 204.291 372.232 203.783 370.881 203.783C369.912 203.783 369.1 204.133 368.443 204.832C367.787 205.531 367.439 206.42 367.4 207.498L374.373 207.498Z"/>
<path d="M379.189 202.225L381.193 202.225L381.193 204.392C381.357 203.971 381.76 203.457 382.4 202.851C383.041 202.246 383.779 201.943 384.615 201.943C384.654 201.943 384.721 201.947 384.814 201.955C384.908 201.963 385.068 201.978 385.295 202.002L385.295 204.228C385.17 204.205 385.055 204.189 384.949 204.182C384.844 204.174 384.729 204.17 384.604 204.17C383.541 204.17 382.725 204.512 382.154 205.195C381.584 205.879 381.299 206.666 381.299 207.557L381.299 214.775L379.189 214.775L379.189 202.225Z"/>
</g>
</g>
</svg>
